<?xml version="1.0" encoding="utf-8"?>
<svg viewBox="0 0 70 30" width="70" height="30" fill="none" xmlns="http://www.w3.org/2000/svg">
  <path d="M 9.002 17.74 L 9.002 24.24 L 4.492 24.24 L 4.492 4.79 L 11.352 4.79 C 12.547 4.763 13.739 4.929 14.882 5.28 C 15.778 5.549 16.606 6.006 17.312 6.62 C 17.935 7.165 18.418 7.851 18.722 8.62 C 19.042 9.422 19.205 10.277 19.202 11.14 C 19.211 12.052 19.051 12.957 18.732 13.81 C 18.428 14.611 17.938 15.327 17.302 15.9 C 16.59 16.515 15.759 16.978 14.862 17.26 C 13.731 17.602 12.553 17.764 11.372 17.74 L 9.002 17.74 Z M 9.002 14.33 L 11.352 14.33 C 11.81 14.374 12.273 14.322 12.71 14.178 C 13.147 14.033 13.55 13.799 13.892 13.49 C 14.442 12.836 14.718 11.994 14.662 11.14 C 14.67 10.728 14.603 10.318 14.462 9.93 C 14.338 9.575 14.128 9.256 13.852 9 C 13.57 8.723 13.228 8.514 12.852 8.39 C 12.377 8.237 11.881 8.163 11.382 8.17 L 9.002 8.17 L 9.002 14.33 Z" fill="white"/>
  <path d="M 25.822 10.39 L 25.822 24.24 L 21.682 24.24 L 21.682 10.39 L 25.822 10.39 Z" fill="white"/>
  <path d="M 26.302 6.6 C 26.301 6.924 26.233 7.244 26.102 7.54 C 25.965 7.824 25.778 8.081 25.552 8.3 C 25.312 8.516 25.038 8.692 24.742 8.82 C 24.424 8.947 24.084 9.012 23.742 9.01 C 23.399 9.016 23.059 8.951 22.742 8.82 C 22.458 8.686 22.195 8.511 21.962 8.3 C 21.741 8.078 21.559 7.822 21.422 7.54 C 21.182 6.933 21.182 6.257 21.422 5.65 C 21.554 5.363 21.737 5.102 21.962 4.88 C 22.187 4.66 22.452 4.484 22.742 4.36 C 23.057 4.224 23.399 4.16 23.742 4.17 C 24.085 4.164 24.425 4.229 24.742 4.36 C 25.344 4.6 25.83 5.062 26.102 5.65 C 26.234 5.95 26.302 6.273 26.302 6.6 Z" fill="#EE442A"/>
  <path d="M 39.202 13.68 C 39.092 13.81 38.972 13.931 38.842 14.04 C 38.694 14.138 38.518 14.184 38.342 14.17 C 38.146 14.17 37.954 14.122 37.782 14.03 L 37.202 13.71 C 36.974 13.573 36.732 13.459 36.482 13.37 C 36.159 13.265 35.821 13.215 35.482 13.22 C 35.026 13.212 34.575 13.308 34.162 13.5 C 33.795 13.689 33.482 13.968 33.252 14.31 C 32.992 14.699 32.808 15.133 32.712 15.59 C 32.594 16.146 32.537 16.713 32.542 17.28 C 32.472 18.354 32.738 19.424 33.302 20.34 C 33.538 20.681 33.856 20.958 34.226 21.144 C 34.596 21.331 35.007 21.423 35.422 21.41 C 35.809 21.424 36.195 21.366 36.562 21.24 C 36.813 21.128 37.054 20.994 37.282 20.84 L 37.812 20.42 C 37.998 20.296 38.218 20.233 38.442 20.24 C 38.587 20.232 38.732 20.261 38.863 20.324 C 38.994 20.387 39.107 20.482 39.192 20.6 L 40.392 22.08 C 39.997 22.539 39.543 22.942 39.042 23.28 C 38.587 23.574 38.1 23.815 37.592 24 C 37.109 24.17 36.61 24.287 36.102 24.35 C 35.622 24.421 35.137 24.458 34.652 24.46 C 33.823 24.46 33.003 24.294 32.239 23.973 C 31.475 23.652 30.782 23.182 30.202 22.59 C 29.599 21.933 29.127 21.165 28.812 20.33 C 28.463 19.369 28.29 18.353 28.302 17.33 C 28.297 16.383 28.445 15.44 28.742 14.54 C 29.028 13.708 29.48 12.942 30.072 12.29 C 30.657 11.619 31.385 11.086 32.202 10.73 C 33.154 10.344 34.175 10.157 35.202 10.18 C 36.18 10.158 37.153 10.335 38.062 10.7 C 38.866 11.065 39.593 11.581 40.202 12.22 L 39.202 13.68 Z" fill="white"/>
  <path d="M 47.012 24.46 C 46.417 24.467 45.825 24.373 45.262 24.18 C 44.787 23.997 44.354 23.718 43.992 23.36 C 43.641 22.994 43.372 22.558 43.202 22.08 C 43.016 21.543 42.925 20.978 42.932 20.41 L 42.932 13.25 L 41.782 13.25 C 41.681 13.255 41.581 13.24 41.487 13.205 C 41.392 13.171 41.306 13.118 41.232 13.05 C 41.153 12.97 41.092 12.875 41.053 12.77 C 41.013 12.665 40.996 12.552 41.002 12.44 L 41.002 10.82 L 43.202 10.39 L 44.022 7 C 44.065 6.798 44.183 6.619 44.351 6.499 C 44.519 6.379 44.726 6.326 44.932 6.35 L 47.092 6.35 L 47.092 10.4 L 50.462 10.4 L 50.462 13.23 L 47.092 13.23 L 47.092 20.11 C 47.082 20.395 47.163 20.675 47.322 20.91 C 47.402 21.012 47.506 21.093 47.624 21.147 C 47.743 21.201 47.872 21.226 48.002 21.22 C 48.125 21.233 48.249 21.233 48.372 21.22 C 48.465 21.191 48.555 21.154 48.642 21.11 L 48.852 21.01 C 48.925 20.97 49.008 20.949 49.092 20.95 C 49.146 20.946 49.2 20.952 49.252 20.969 C 49.304 20.987 49.351 21.014 49.392 21.05 C 49.489 21.12 49.57 21.208 49.632 21.31 L 50.882 23.31 C 50.341 23.716 49.731 24.021 49.082 24.21 C 48.41 24.411 47.713 24.512 47.012 24.51 L 47.012 24.46 Z" fill="white"/>
  <path d="M 62.402 24.24 C 62.097 24.259 61.791 24.204 61.512 24.08 C 61.274 23.92 61.098 23.684 61.012 23.41 L 60.722 22.65 C 60.372 22.95 60.042 23.2 59.722 23.43 C 59.404 23.647 59.07 23.838 58.722 24 C 58.368 24.152 57.999 24.266 57.622 24.34 C 57.2 24.424 56.771 24.464 56.342 24.46 C 55.759 24.47 55.178 24.385 54.622 24.21 C 54.134 24.065 53.684 23.816 53.302 23.48 C 52.937 23.153 52.652 22.746 52.472 22.29 C 52.263 21.766 52.161 21.205 52.172 20.64 C 52.181 20.115 52.311 19.598 52.552 19.13 C 52.849 18.557 53.294 18.073 53.842 17.73 C 54.605 17.236 55.447 16.874 56.332 16.66 C 57.62 16.338 58.944 16.177 60.272 16.18 L 60.272 15.59 C 60.329 14.964 60.147 14.338 59.762 13.84 C 59.58 13.65 59.358 13.503 59.113 13.408 C 58.867 13.313 58.604 13.273 58.342 13.29 C 57.936 13.283 57.531 13.336 57.142 13.45 C 56.854 13.551 56.573 13.671 56.302 13.81 C 56.072 13.944 55.835 14.064 55.592 14.17 C 55.334 14.285 55.054 14.339 54.772 14.33 C 54.51 14.341 54.252 14.271 54.032 14.13 C 53.838 13.995 53.677 13.817 53.562 13.61 L 52.822 12.32 C 53.629 11.596 54.57 11.035 55.592 10.67 C 56.65 10.305 57.762 10.123 58.882 10.13 C 59.651 10.12 60.415 10.259 61.132 10.54 C 61.779 10.789 62.363 11.178 62.842 11.68 C 63.326 12.168 63.698 12.755 63.932 13.4 C 64.181 14.103 64.306 14.844 64.302 15.59 L 64.302 24.24 L 62.402 24.24 Z M 57.652 21.72 C 58.133 21.727 58.61 21.632 59.052 21.44 C 59.509 21.211 59.922 20.903 60.272 20.53 L 60.272 18.61 C 59.601 18.628 58.932 18.698 58.272 18.82 C 57.836 18.898 57.412 19.033 57.012 19.22 C 56.744 19.338 56.516 19.529 56.352 19.77 C 56.24 19.976 56.181 20.206 56.182 20.44 C 56.164 20.625 56.189 20.811 56.255 20.985 C 56.321 21.158 56.426 21.314 56.562 21.44 C 56.905 21.646 57.302 21.743 57.702 21.72 L 57.652 21.72 Z" fill="white"/>
</svg>